# xmcd
#
# Track frame offsets:
#	150
#	14714
#	31595
#	50717
#	60235
#	73057
#	90456
#	107552
#	119249
#	131034
#	141838
#	157493
#	177825
#	192830
#	206941
#	219641
#	232540
#	244411
#	261133
#	274252
#	290250
#	307356
#	324091
#
# Disc length: 4584 seconds
#
# Revision: 0
# Processed by: cddbd v1.5.2PL0 Copyright (c) Steve Scherf et al.
# Submitted via: dBpowerAMP V4.0
#
DISCID=6511e617
DTITLE=Todos - Popular
DYEAR=1900
DGENRE=
TTITLE0=Adios
TTITLE1=Ya Vengo
TTITLE2=Ola
TTITLE3=Que Tal
TTITLE4=Ustwd
TTITLE5=Ers
TTITLE6=Dd
TTITLE7=Ddd
TTITLE8=Ccc
TTITLE9=Xxx
TTITLE10=Xcv
TTITLE11=Gggg
TTITLE12=Jjj
TTITLE13=Kk
TTITLE14=Ffff
TTITLE15=Fffffff
TTITLE16=hhh
TTITLE17=jjjjj
TTITLE18=jj
TTITLE19=iiiiiioooo
TTITLE20=qqqqq
TTITLE21=aaaaa
TTITLE22=QQWW
EXTD=track 15
EXTT0=
EXTT1=
EXTT2=
EXTT3=
EXTT4=
EXTT5=
EXTT6=
EXTT7=
EXTT8=
EXTT9=
EXTT10=
EXTT11=
EXTT12=
EXTT13=
EXTT14=
EXTT15=
EXTT16=
EXTT17=
EXTT18=
EXTT19=
EXTT20=
EXTT21=
EXTT22=
PLAYORDER=
